<svg xmlns="http://www.w3.org/2000/svg" width="6139" height="4736" viewBox="0 0 6139 4736" version="1.1"><rect data-bg="1" x="0" y="0" width="100%" height="100%" fill="#f4f4f2"/>
	<path d="M 1181.898 3.280 C 1180.029 4.534, 1146.610 42.897, 1107.634 88.530 L 1036.768 171.500 943.634 239.842 C 804.851 341.682, 796.246 348.076, 774.136 365.785 C 549.895 545.394, 388.586 793.975, 317.484 1069.500 C 306.222 1113.144, 0 2357.248, 0 2359.362 C 0 2364.008, 4.296 2370.398, 9 2372.750 C 12.138 2374.319, 90.844 2391.369, 268.987 2429.071 C 409.505 2458.810, 524.524 2483.222, 524.583 2483.321 C 524.643 2483.419, 488.754 2953.075, 444.831 3527 C 368.102 4529.575, 365.033 4570.667, 366.574 4574.767 C 369.358 4582.171, 371.610 4583.170, 406.587 4592.513 C 1122.856 4783.833, 1883.475 4783.504, 2599.800 4591.564 C 2636.261 4581.794, 2637.750 4580.777, 2637.242 4566 C 2637.100 4561.875, 2601.260 4091.625, 2557.598 3521 C 2513.935 2950.375, 2478.292 2483.410, 2478.390 2483.299 C 2478.488 2483.189, 2593.528 2458.756, 2734.034 2429.005 C 2874.540 2399.253, 2991.243 2374.163, 2993.373 2373.248 C 2997.583 2371.441, 3001.422 2366.416, 3002.467 2361.347 C 3003.063 2358.454, 2697.436 1114.196, 2682.080 1057 C 2611.997 795.956, 2459.401 557.831, 2250.500 383.519 C 2221.358 359.202, 2203.865 346.025, 2083.500 257.723 L 1966.500 171.888 1895.137 88.361 C 1855.887 42.420, 1822.362 3.972, 1820.637 2.920 C 1817.565 1.047, 1810.931 1.007, 1501.398 1.004 L 1185.296 1 1181.898 3.280 M 4317.898 3.280 C 4316.029 4.534, 4282.610 42.897, 4243.633 88.530 L 4172.767 171.500 4072.133 245.337 C 4016.785 285.948, 3962.275 325.995, 3951 334.332 C 3713.629 509.847, 3541.451 758.478, 3460.937 1042 C 3453.642 1067.687, 3136 2355.452, 3136 2359.338 C 3136 2364.005, 3140.286 2370.393, 3145 2372.751 C 3148.139 2374.320, 3226.780 2391.357, 3404.989 2429.072 C 3545.507 2458.812, 3660.523 2483.224, 3660.579 2483.322 C 3660.635 2483.420, 3624.743 2953.075, 3580.821 3527 C 3504.023 4530.489, 3501.022 4570.664, 3502.570 4574.767 C 3505.362 4582.172, 3507.615 4583.171, 3542.587 4592.513 C 4258.906 4783.853, 5018.955 4783.523, 5735.800 4591.559 C 5772.260 4581.795, 5773.739 4580.785, 5773.216 4566 C 5773.070 4561.875, 5737.232 4091.625, 5693.577 3521 C 5649.921 2950.375, 5614.286 2483.409, 5614.387 2483.298 C 5614.487 2483.188, 5729.304 2458.781, 5869.535 2429.061 C 6009.766 2399.341, 6126.437 2374.298, 6128.804 2373.409 C 6133.482 2371.653, 6137.333 2366.849, 6138.463 2361.362 C 6139.056 2358.487, 5833.453 1114.318, 5818.077 1057 C 5747.242 792.962, 5590.602 550.607, 5378.500 376.883 C 5352.173 355.319, 5336.752 343.763, 5219.693 257.874 L 5102.500 171.887 5031.114 88.346 C 4991.852 42.399, 4958.327 3.951, 4956.614 2.907 C 4953.573 1.052, 4946.139 1.007, 4637.398 1.004 L 4321.296 1 4317.898 3.280 M 1198.048 21.750 C 1198.075 22.163, 1218.020 55.800, 1242.370 96.500 L 1286.644 170.500 1501.432 170.500 L 1716.220 170.500 1760.610 96.187 C 1785.024 55.314, 1805 21.677, 1805 21.437 C 1805 21.197, 1668.425 21, 1501.500 21 C 1334.575 21, 1198.022 21.337, 1198.048 21.750 M 4267 93.128 C 4233.175 132.778, 4202.654 168.545, 4199.175 172.610 L 4192.851 180 4413.868 180 L 4634.885 180 4635.193 175.759 C 4635.640 169.581, 4638.754 169.137, 4639.189 175.188 L 4639.500 179.500 4860.334 179.752 C 4987.555 179.898, 5081.027 179.631, 5080.834 179.123 C 5080.650 178.637, 5050.350 142.882, 5013.500 99.666 L 4946.500 21.091 4637.500 21.063 L 4328.500 21.036 4267 93.128 M 1122.907 102.648 C 1086.383 145.418, 1055.683 181.440, 1054.684 182.697 C 1052.889 184.957, 1053.823 187.816, 1134.040 425.742 C 1178.685 558.159, 1215.589 666.902, 1216.050 667.394 C 1216.903 668.304, 1494.943 537.118, 1494.980 535.787 C 1495.006 534.849, 1192.148 27.889, 1190.548 26.193 C 1189.552 25.138, 1176.529 39.858, 1122.907 102.648 M 1660.500 279.512 C 1576.900 419.462, 1508.382 534.537, 1508.239 535.233 C 1508.029 536.247, 1785.714 669.132, 1786.735 668.507 C 1786.865 668.427, 1823.661 559.554, 1868.504 426.566 L 1950.037 184.769 1944.372 178.134 C 1941.256 174.485, 1910.568 138.538, 1876.176 98.250 C 1841.783 57.962, 1813.387 25.013, 1813.072 25.029 C 1812.757 25.044, 1744.100 139.562, 1660.500 279.512 M 1290.296 176.250 C 1291.959 180.331, 1500.671 528.280, 1501.442 528.257 C 1502.212 528.234, 1713 176.649, 1713 175.387 C 1713 175.174, 1617.777 175, 1501.393 175 C 1332.502 175, 1289.889 175.252, 1290.296 176.250 M 4071.940 271.271 C 3905.165 393.692, 3894.763 401.968, 3831.077 462.913 C 3782.406 509.489, 3714.438 587.159, 3685.299 629.500 L 3683.234 632.500 3741.214 737 C 3773.103 794.475, 3801.339 846, 3803.960 851.500 C 3818.558 882.132, 3825.638 912.137, 3826.612 947.500 L 3827.136 966.500 3784.568 1408.419 C 3761.156 1651.474, 3742 1851.163, 3742 1852.172 C 3742 1853.944, 3747.865 1853.997, 3917.250 1853.753 L 4092.500 1853.500 4093 1838.500 L 4093.500 1823.500 4118.500 1823.500 L 4143.500 1823.500 4144 1838.500 L 4144.500 1853.500 4378 1853.500 L 4611.500 1853.500 4612 1838.500 L 4612.500 1823.500 4623.750 1823.217 L 4635 1822.934 4635 1005.467 L 4635 188 4410.190 188 L 4185.380 188 4071.940 271.271 M 4639 1005.468 L 4639 1822.937 4650.750 1823.218 L 4662.500 1823.500 4663 1838.500 L 4663.500 1853.500 4897 1853.500 L 5130.500 1853.500 5131 1838.500 L 5131.500 1823.500 5156.500 1823.500 L 5181.500 1823.500 5182 1838.500 L 5182.500 1853.500 5357.750 1853.753 C 5468.334 1853.912, 5533 1853.654, 5533 1853.053 C 5533 1852.528, 5513.875 1653.234, 5490.500 1410.176 C 5444.788 934.850, 5446.315 952.894, 5449.495 925.706 C 5454.800 880.353, 5456.894 875.643, 5532.001 740.068 C 5563.994 682.317, 5590.386 634.239, 5590.651 633.228 C 5590.976 631.984, 5587.344 626.397, 5579.415 615.945 C 5509.516 523.803, 5430.265 443.329, 5339 371.822 C 5331.575 366.004, 5272.400 322.268, 5207.500 274.630 L 5089.500 188.016 4864.250 188.008 L 4639 188 4639 1005.468 M 933.929 272.753 C 809.426 364.144, 808.215 365.046, 784.500 384.078 C 700.529 451.467, 624.499 529.860, 558.673 616.922 L 547.012 632.345 549.375 636.422 C 559.999 654.754, 666.074 847.175, 668.768 853 C 684.096 886.153, 690.463 915.702, 690.424 953.500 C 690.400 976.148, 689.754 983.192, 648.200 1413.427 C 624.990 1653.736, 606 1851.177, 606 1852.183 C 606 1853.942, 609.005 1854.002, 684.250 1853.756 L 762.500 1853.500 763 1838.500 L 763.500 1823.500 788.430 1823.232 C 807.707 1823.025, 813.542 1823.252, 814.165 1824.232 C 814.607 1824.929, 814.976 1831.912, 814.985 1839.750 L 815 1854 862.500 1854 L 910 1854 910 1838.700 C 910 1828.133, 910.371 1823.029, 911.200 1822.200 C 912.941 1820.459, 1120.059 1820.459, 1121.800 1822.200 C 1122.625 1823.025, 1123 1828.022, 1123 1838.200 L 1123 1853 1147.500 1853 L 1172 1853 1172.015 1839.250 C 1172.024 1831.688, 1172.393 1824.929, 1172.835 1824.232 C 1173.458 1823.252, 1179.293 1823.025, 1198.570 1823.232 L 1223.500 1823.500 1224 1838.500 L 1224.500 1853.500 1322.500 1853.500 L 1420.500 1853.500 1420.751 1217.250 C 1420.889 867.313, 1420.795 581, 1420.543 581 C 1420.291 581, 1374.068 602.825, 1317.825 629.500 C 1220.587 675.618, 1211.994 679.417, 1210.477 676.962 C 1210.124 676.391, 1173.162 567.154, 1128.339 434.212 C 1083.516 301.271, 1046.509 192.153, 1046.101 191.729 C 1045.692 191.305, 995.215 227.766, 933.929 272.753 M 1874.500 434.249 C 1795.753 667.851, 1792.400 677.512, 1789.991 677.793 C 1788.332 677.987, 1752.756 661.607, 1684.991 629.447 C 1566.057 573.005, 1580.018 579.367, 1578.899 581.104 C 1578.188 582.208, 1577.876 582.049, 1577.408 580.345 C 1576.805 578.149, 1504.482 542.848, 1501 543.051 C 1500.175 543.100, 1483.750 550.663, 1464.500 559.858 L 1429.500 576.577 1429.249 1215.285 L 1428.998 1853.993 1603.749 1853.747 L 1778.500 1853.500 1779 1838.500 L 1779.500 1823.500 1804.500 1823.500 L 1829.500 1823.500 1830 1838.500 L 1830.500 1853.500 2009.224 1853.753 L 2187.948 1854.005 2188.224 1838.753 L 2188.500 1823.500 2214 1823.500 L 2239.500 1823.500 2239.776 1838.750 L 2240.052 1854 2318.526 1854 C 2371.799 1854, 2397 1853.669, 2397 1852.968 C 2397 1852.400, 2377.839 1652.938, 2354.420 1409.718 L 2311.841 967.500 2312.336 947.500 C 2313.206 912.326, 2320.203 882.267, 2334.450 852.500 C 2337.346 846.450, 2365.654 794.724, 2397.357 737.552 C 2429.061 680.381, 2455 633.067, 2455 632.411 C 2455 631.014, 2436.854 606.911, 2419.683 585.500 C 2356.233 506.384, 2282.155 433.489, 2201 370.309 C 2185.151 357.970, 1959.473 192.111, 1957.557 191.394 C 1956.941 191.163, 1922.331 292.360, 1874.500 434.249 M 1490.746 581.086 C 1460.371 588.244, 1449.333 627.497, 1471.194 650.611 C 1495.087 675.874, 1537.337 662.685, 1542.885 628.231 C 1547.616 598.856, 1520.268 574.128, 1490.746 581.086 M 1494.226 582.123 C 1474.356 585.390, 1459.610 604.830, 1461.338 625.479 C 1464.150 659.081, 1505.951 674.144, 1529.908 650.188 C 1557.587 622.508, 1533.068 575.737, 1494.226 582.123 M 1491.596 611.306 C 1489.065 613.157, 1489.894 617.192, 1493.122 618.734 C 1498.461 621.285, 1499.316 625, 1494.563 625 C 1491.495 625, 1489.631 627.395, 1490.380 630.377 C 1491.600 635.238, 1495.789 634.718, 1498.980 629.310 C 1501.253 625.458, 1503.258 625.918, 1505.079 630.709 C 1506.818 635.282, 1513.530 632.767, 1512.827 627.805 C 1512.574 626.021, 1511.709 625.387, 1509 625 C 1504.293 624.328, 1504.150 621.094, 1508.738 619.075 C 1512.446 617.443, 1513.595 614.979, 1512.020 612.038 C 1509.934 608.140, 1504 610.607, 1504 615.371 C 1504 616.597, 1503.466 618.134, 1502.814 618.786 C 1501.187 620.413, 1498 617.496, 1498 614.380 C 1498 613.110, 1497.130 611.605, 1496.066 611.035 C 1493.649 609.742, 1493.743 609.736, 1491.596 611.306 M 537.061 646.322 C 462.243 750.436, 396.854 881.403, 357.154 1006.655 C 343.674 1049.182, 335.889 1080.161, 198.483 1638 C 122.278 1947.375, 59.690 2201.287, 59.397 2202.250 C 59.048 2203.399, 59.404 2204, 60.433 2204 C 61.295 2204, 62 2204.450, 62 2205 C 62 2205.550, 61.212 2206, 60.250 2206 C 58.662 2206, 20.820 2354.393, 22.151 2355.399 C 22.732 2355.838, 538.349 2464.984, 538.610 2464.724 C 539.520 2463.813, 553.562 2310.291, 552.821 2309.347 C 552.269 2308.644, 552.313 2308.059, 552.933 2307.847 C 553.525 2307.645, 559.394 2250.620, 567.017 2171 C 586.410 1968.447, 593.023 1899.858, 639.667 1417.500 C 680.871 991.397, 682.315 975.740, 682.403 954 C 682.555 916.410, 676.272 888.067, 660.566 855.500 C 655.001 843.959, 543.926 642.519, 542.193 640.822 C 541.812 640.449, 539.502 642.924, 537.061 646.322 M 2459.689 642.161 C 2453.155 652.532, 2343.150 852.877, 2339.626 860.825 C 2326.783 889.790, 2320 921.856, 2320 953.602 C 2320 964.887, 2400.475 1812.887, 2405.970 1859.500 C 2406.489 1863.900, 2410.567 1905.975, 2415.033 1953 C 2441.379 2230.406, 2448.974 2307.491, 2449.992 2307.831 C 2450.701 2308.067, 2450.747 2308.599, 2450.124 2309.351 C 2449.299 2310.345, 2463.293 2463.626, 2464.300 2464.633 C 2464.572 2464.905, 2980.080 2355.928, 2980.791 2355.448 C 2982.019 2354.619, 2944.298 2206.629, 2942.756 2206.226 C 2940.667 2205.680, 2940.441 2204.279, 2942.368 2203.823 C 2943.408 2203.577, 2914.296 2084.019, 2820.905 1705 C 2658.201 1044.677, 2665.694 1074.909, 2657.868 1047.214 C 2618.300 907.179, 2552.309 768.664, 2469.183 651.161 C 2461.277 639.985, 2461.141 639.856, 2459.689 642.161 M 3666.876 655.290 C 3580.564 779.090, 3515.924 917.363, 3476.979 1061.500 C 3473.709 1073.600, 3409.134 1334.825, 3333.479 1642 C 3257.823 1949.175, 3195.685 2201.287, 3195.394 2202.250 C 3195.047 2203.397, 3195.405 2204, 3196.433 2204 C 3197.295 2204, 3198 2204.450, 3198 2205 C 3198 2205.550, 3197.208 2206, 3196.240 2206 C 3194.640 2206, 3156.810 2354.373, 3158.148 2355.399 C 3159.696 2356.586, 3445.241 2416.144, 3445.907 2415.419 C 3446.372 2414.913, 3453.584 2381.650, 3461.934 2341.500 C 3470.283 2301.350, 3477.344 2267.713, 3477.625 2266.750 C 3477.991 2265.495, 3477.567 2265, 3476.126 2265 C 3472.991 2265, 3472.642 2263.174, 3475.709 2262.818 L 3478.453 2262.500 3627.135 1551 C 3708.911 1159.675, 3776.581 835.675, 3777.513 831 L 3779.209 822.500 3729.042 732 C 3701.450 682.225, 3678.561 641.181, 3678.178 640.790 C 3677.794 640.400, 3672.708 646.925, 3666.876 655.290 M 5595.687 642.163 C 5591.199 649.283, 5495.996 822.153, 5495.975 823.222 C 5495.961 823.925, 5563.573 1148.162, 5646.223 1543.750 L 5796.496 2263 5799.307 2263 C 5800.926 2263, 5801.856 2263.424, 5801.500 2264 C 5801.160 2264.550, 5799.956 2265, 5798.824 2265 C 5797.360 2265, 5796.896 2265.505, 5797.215 2266.750 C 5797.462 2267.713, 5804.595 2301.688, 5813.065 2342.250 C 5824.746 2398.182, 5828.811 2416, 5829.891 2416 C 5831.229 2416, 6116.175 2355.870, 6116.783 2355.459 C 6118.003 2354.635, 6080.285 2206.626, 6078.753 2206.225 C 6076.674 2205.681, 6076.440 2204.280, 6078.352 2203.823 C 6079.610 2203.523, 6028.395 1994.505, 5825.899 1173.500 C 5812.063 1117.400, 5797.672 1060.647, 5793.921 1047.382 C 5754.220 906.990, 5688.816 769.704, 5605.161 651.163 C 5597.277 639.991, 5597.139 639.860, 5595.687 642.163 M 3782 829.251 C 3782 829.609, 3707.507 1186.436, 3616.460 1622.201 C 3525.413 2057.965, 3450.826 2415.161, 3450.710 2415.969 C 3450.529 2417.235, 3673.526 2465.807, 3674.599 2464.735 C 3675.500 2463.833, 3689.545 2310.290, 3688.812 2309.347 C 3688.271 2308.651, 3688.317 2308.057, 3688.927 2307.847 C 3689.513 2307.646, 3695.418 2250.273, 3702.961 2171.500 C 3723.981 1951.980, 3730.779 1881.457, 3775.696 1417 C 3817.075 989.125, 3818.393 974.821, 3818.421 953.500 C 3818.460 923.809, 3814.912 902.728, 3805.378 875.990 C 3800.598 862.585, 3782 825.403, 3782 829.251 M 5488.157 836 C 5466.750 873.798, 5456 912.831, 5456 952.763 C 5456 965.135, 5533.247 1780.371, 5541.443 1854.500 C 5542.234 1861.650, 5546.536 1905.975, 5551.003 1953 C 5576.911 2225.702, 5584.976 2307.492, 5585.993 2307.831 C 5586.702 2308.067, 5586.747 2308.599, 5586.124 2309.351 C 5585.298 2310.346, 5599.293 2463.627, 5600.303 2464.636 C 5600.472 2464.805, 5650.918 2454.275, 5712.405 2441.236 L 5824.200 2417.529 5823.698 2414.015 C 5823.254 2410.905, 5496.723 847.794, 5493.636 834 L 5492.405 828.500 5488.157 836 M 1491.105 1258.583 C 1470.109 1264.229, 1456.355 1284.993, 1459.948 1305.622 C 1468.174 1352.859, 1535.419 1352.550, 1542.902 1305.240 C 1547.507 1276.123, 1519.545 1250.935, 1491.105 1258.583 M 1490.500 1260.345 C 1454.632 1272.232, 1450.721 1319.473, 1484.272 1335.561 C 1519.478 1352.443, 1556.054 1312.775, 1536.324 1279.109 C 1527.311 1263.730, 1506.276 1255.116, 1490.500 1260.345 M 1506.204 1288.570 C 1504.992 1289.419, 1504 1291.158, 1504 1292.434 C 1504 1297.977, 1498.477 1297.837, 1497.809 1292.278 C 1497.139 1286.692, 1490.849 1286.771, 1490.181 1292.373 C 1489.913 1294.621, 1490.435 1295.284, 1493.475 1296.554 C 1495.462 1297.384, 1497.358 1298.769, 1497.689 1299.633 C 1498.309 1301.247, 1496.211 1303.249, 1494.809 1302.382 C 1494.377 1302.115, 1494.273 1302.549, 1494.580 1303.347 C 1494.886 1304.145, 1494.656 1305.095, 1494.068 1305.458 C 1492.094 1306.678, 1492.840 1309.275, 1495.001 1308.710 C 1496.102 1308.422, 1496.751 1308.595, 1496.442 1309.093 C 1495.507 1310.607, 1491.979 1310.108, 1491.311 1308.368 C 1490.966 1307.470, 1491.209 1305.895, 1491.851 1304.868 C 1492.545 1303.755, 1492.617 1303, 1492.028 1303 C 1491.483 1303, 1490.754 1304.131, 1490.407 1305.513 C 1488.947 1311.334, 1496.127 1313.328, 1498.463 1307.750 C 1499.211 1305.963, 1500.164 1304.162, 1500.581 1303.748 C 1501.521 1302.814, 1505 1305.844, 1505 1307.596 C 1505 1308.303, 1505.520 1309.203, 1506.155 1309.595 C 1506.834 1310.015, 1507.039 1309.872, 1506.653 1309.248 C 1506.237 1308.575, 1506.760 1308.386, 1508.083 1308.732 C 1509.669 1309.147, 1509.849 1309.480, 1508.835 1310.123 C 1506.929 1311.331, 1508.755 1311.202, 1511.066 1309.965 C 1514.887 1307.920, 1512.875 1302, 1508.359 1302 C 1503.678 1302, 1504.582 1298.268, 1509.878 1295.730 C 1513.095 1294.188, 1513.396 1290.339, 1510.454 1288.385 C 1508.708 1287.226, 1508.083 1287.254, 1506.204 1288.570 M 767 1966.980 L 767 2107 789.003 2107 L 811.007 2107 810.753 1967.250 L 810.500 1827.500 788.750 1827.230 L 767 1826.961 767 1966.980 M 1176.786 1827.750 C 1176.604 1828.162, 1176.614 1891.162, 1176.809 1967.750 L 1177.163 2107 1198.581 2107 L 1220 2107 1220 1967 L 1220 1827 1198.559 1827 C 1186.766 1827, 1176.969 1827.338, 1176.786 1827.750 M 1783 1967 L 1783 2107 1804.500 2107 L 1826 2107 1826 1967 L 1826 1827 1804.500 1827 L 1783 1827 1783 1967 M 2192.667 1827.667 C 2192.300 1828.033, 2192 1891.033, 2192 1967.667 L 2192 2107 2214 2107 L 2236 2107 2236 1967 L 2236 1827 2214.667 1827 C 2202.933 1827, 2193.033 1827.300, 2192.667 1827.667 M 4097 1967 L 4097 2107 4118.500 2107 L 4140 2107 4140 1967 L 4140 1827 4118.500 1827 L 4097 1827 4097 1967 M 4616 1967 L 4616 2107 4637.500 2107 L 4659 2107 4659 1967 L 4659 1827 4637.500 1827 L 4616 1827 4616 1967 M 5135 1967 L 5135 2107 5156.500 2107 L 5178 2107 5178 1967 L 5178 1827 5156.500 1827 L 5135 1827 5135 1967 M 918 3088.500 L 918 4348 1016.500 4348 L 1115 4348 1115 3088.500 L 1115 1829 1016.500 1829 L 918 1829 918 3088.500 M 604.957 1862.250 C 604.227 1866.483, 588.425 2033.737, 588.707 2034.250 C 588.933 2034.662, 628.241 2035, 676.059 2035 L 763 2035 763 1948.500 L 763 1862 684 1862 C 640.550 1862, 604.981 1862.112, 604.957 1862.250 M 815 1948.500 L 815 2035 862.500 2035 L 910 2035 910 1948.500 L 910 1862 862.500 1862 L 815 1862 815 1948.500 M 1123 3107.800 C 1123 4075.422, 1122.732 4353.868, 1121.800 4354.800 C 1120.888 4355.712, 1102.756 4356, 1046.300 4356 L 972 4356 972 4368 L 972 4380 1070.500 4380 L 1169 4380 1169 3121 L 1169 1862 1146 1862 L 1123 1862 1123 3107.800 M 1224 1948.500 L 1224 2035 1501.500 2035 L 1779 2035 1779 1948.500 L 1779 1862 1501.500 1862 L 1224 1862 1224 1948.500 M 1830.244 1948.250 L 1830.500 2034.500 2009.250 2034.753 L 2188 2035.005 2188 1948.503 L 2188 1862 2008.994 1862 L 1829.989 1862 1830.244 1948.250 M 2240 1948.500 L 2240 2035 2327 2035 L 2414 2035 2414 2031.681 C 2414 2028.741, 2399.998 1880.563, 2398.462 1867.250 L 2397.856 1862 2318.928 1862 L 2240 1862 2240 1948.500 M 3740.539 1866.250 C 3740.218 1868.588, 3736.603 1905.825, 3732.506 1949 C 3728.408 1992.175, 3724.812 2029.189, 3724.516 2031.253 L 3723.976 2035.005 3908.238 2034.753 L 4092.500 2034.500 4092.756 1948.250 L 4093.011 1862 3917.067 1862 L 3741.123 1862 3740.539 1866.250 M 4144 1948.502 L 4144 2035.004 4377.750 2034.752 L 4611.500 2034.500 4611.756 1948.250 L 4612.011 1862 4378.006 1862 L 4144 1862 4144 1948.502 M 4663 1948.502 L 4663 2035.004 4896.750 2034.752 L 5130.500 2034.500 5130.756 1948.250 L 5131.011 1862 4897.006 1862 L 4663 1862 4663 1948.502 M 5182.244 1948.250 L 5182.500 2034.500 5366.250 2034.753 L 5550 2035.005 5550 2031.659 C 5550 2029.819, 5546.400 1991.019, 5542 1945.438 C 5537.600 1899.856, 5534 1862.436, 5534 1862.281 C 5534 1862.127, 5454.798 1862, 5357.994 1862 L 5181.989 1862 5182.244 1948.250 M 569.122 2233.750 C 559.029 2338.662, 549.693 2435.975, 548.375 2450 C 547.056 2464.025, 510.226 2943.275, 466.529 3515 C 422.832 4086.725, 386.823 4557.018, 386.508 4560.095 L 385.936 4565.689 416.718 4573.803 C 692.113 4646.392, 964.703 4690.384, 1245 4707.473 C 1298.844 4710.756, 1378.679 4713.997, 1405.750 4713.999 L 1421 4714 1421 4642.969 C 1421 4580.752, 1420.814 4571.866, 1419.500 4571.362 C 1418.675 4571.045, 1418 4570.384, 1418 4569.893 C 1418 4569.402, 1418.675 4569, 1419.500 4569 C 1420.833 4569, 1421 4428, 1421 3306 L 1421 2043 1322.500 2043 L 1224 2043 1224 2077 L 1224 2111 1200.500 2111 L 1177 2111 1177 3247.918 C 1177 3873.223, 1176.727 4385.548, 1176.393 4386.418 C 1175.845 4387.847, 1165.585 4388, 1070.500 4388 C 975.415 4388, 965.155 4387.847, 964.607 4386.418 C 964.273 4385.548, 964 4378.348, 964 4370.418 L 964 4356 938.200 4356 C 919.467 4356, 912.071 4355.671, 911.200 4354.800 C 910.268 4353.868, 910 4095.533, 910 3198.300 L 910 2043 862.513 2043 L 815.027 2043 814.763 2076.750 L 814.500 2110.500 788.750 2110.767 L 763 2111.034 763 2077.017 L 763 2043 675.237 2043 L 587.473 2043 569.122 2233.750 M 1429 3379.136 L 1429 4715.272 1522.250 4714.693 C 1609.464 4714.152, 1631.008 4713.678, 1691 4710.981 C 1973.968 4698.262, 2254.077 4657.320, 2529.052 4588.487 C 2572.100 4577.711, 2615.228 4566.192, 2616.094 4565.238 C 2616.463 4564.832, 2614.359 4533.675, 2611.418 4496 C 2608.477 4458.325, 2606.055 4426.517, 2606.036 4425.316 C 2606.009 4423.704, 2605.280 4423.034, 2603.250 4422.754 L 2600.500 4422.376 2602.973 4421.333 C 2605.143 4420.419, 2605.411 4419.753, 2605.165 4415.895 C 2603.744 4393.631, 2456.471 2471.064, 2454.918 2454.500 C 2453.784 2442.400, 2444.437 2344.975, 2434.147 2238 L 2415.437 2043.500 2327.732 2043.245 L 2240.027 2042.989 2239.763 2076.745 L 2239.500 2110.500 2214 2110.500 L 2188.500 2110.500 2188.237 2076.750 L 2187.973 2043 2008.987 2043 L 1830 2043 1830 2077 L 1830 2111 1804.500 2111 L 1779 2111 1779 2077 L 1779 2043 1604 2043 L 1429 2043 1429 3379.136 M 3705.107 2233.750 C 3695.018 2338.662, 3685.685 2435.975, 3684.366 2450 C 3683.048 2464.025, 3646.211 2943.275, 3602.506 3515 C 3558.801 4086.725, 3522.773 4557.012, 3522.443 4560.082 L 3521.843 4565.665 3552.671 4573.791 C 3833.412 4647.789, 4119.005 4693.255, 4398.500 4708.444 C 4413.900 4709.281, 4431.337 4710.248, 4437.250 4710.592 C 4446.723 4711.144, 4448 4711.027, 4448 4709.609 C 4448 4708.724, 4448.450 4708, 4449 4708 C 4449.550 4708, 4450 4708.633, 4450 4709.407 C 4450 4711.862, 4494.406 4713.658, 4580.250 4714.674 L 4635 4715.323 4635 3413.161 L 4635 2111 4623.500 2111 L 4612 2111 4612 2077 L 4612 2043 4378 2043 L 4144 2043 4144 2077 L 4144 2111 4118.500 2111 L 4093 2111 4093 2077 L 4093 2043 3908.225 2043 L 3723.451 2043 3705.107 2233.750 M 4663 2076.968 L 4663 2110.937 4651.250 2111.218 L 4639.500 2111.500 4639.249 3340.750 L 4638.998 4570 4641.440 4570 C 4642.783 4570, 4644.160 4570.450, 4644.500 4571 C 4644.861 4571.583, 4643.844 4572, 4642.059 4572 L 4639 4572 4639 4643.660 L 4639 4715.320 4693.750 4714.689 C 4778.917 4713.708, 4825 4711.853, 4825 4709.407 C 4825 4708.633, 4825.450 4708, 4826 4708 C 4826.550 4708, 4827 4708.675, 4827 4709.500 C 4827 4711.314, 4823.944 4711.317, 4858.715 4709.478 C 5110.505 4696.162, 5360.957 4660.439, 5605.896 4602.903 C 5659.677 4590.270, 5750.674 4566.824, 5752.076 4565.238 C 5752.436 4564.832, 5750.334 4533.675, 5747.406 4496 C 5744.479 4458.325, 5742.065 4426.517, 5742.042 4425.316 C 5742.011 4423.706, 5741.278 4423.033, 5739.250 4422.754 L 5736.500 4422.376 5738.973 4421.333 C 5741.144 4420.418, 5741.411 4419.755, 5741.161 4415.895 C 5739.951 4397.212, 5592.627 2472.776, 5591.428 2460 C 5590.577 2450.925, 5581.226 2353.500, 5570.650 2243.500 L 5551.419 2043.500 5366.710 2043.247 L 5182 2042.995 5182 2076.997 L 5182 2111 5156.500 2111 L 5131 2111 5131 2077 L 5131 2043 4897 2043 L 4663 2043 4663 2076.968 M 677.621 2130.114 C 676.694 2133.171, 630.063 2987.463, 630.784 2988.184 C 631.723 2989.123, 765.728 2996.605, 766.567 2995.766 C 767.825 2994.508, 814.722 2138.532, 813.595 2137.400 C 812.898 2136.700, 790.355 2135.136, 751.500 2133.093 C 717.950 2131.328, 687.697 2129.624, 684.271 2129.306 C 679.454 2128.859, 677.946 2129.042, 677.621 2130.114 M 2253.333 2132.870 C 2218.042 2134.866, 2188.951 2136.725, 2188.687 2137 C 2187.985 2137.732, 2235.586 2994.920, 2236.373 2995.706 C 2237.222 2996.555, 2371.254 2989.152, 2372.180 2988.205 C 2372.679 2987.695, 2325.712 2130.953, 2325.091 2129.250 C 2324.944 2128.846, 2320.593 2129.065, 2253.333 2132.870 M 681.543 2134.188 C 681.028 2135.716, 634.058 2984.360, 634.464 2984.785 C 635.065 2985.413, 762.179 2992.154, 762.745 2991.588 C 763.469 2990.864, 810.601 2141.241, 809.949 2140.676 C 809.702 2140.463, 782.725 2138.862, 750 2137.119 C 717.275 2135.376, 688.584 2133.709, 686.243 2133.413 C 683.233 2133.033, 681.855 2133.260, 681.543 2134.188 M 2255.500 2136.738 C 2221.400 2138.671, 2193.244 2140.533, 2192.932 2140.876 C 2191.102 2142.885, 2239.552 2991.504, 2241.512 2991.776 C 2243.740 2992.086, 2368.126 2985.241, 2368.486 2984.789 C 2368.647 2984.587, 2330.463 2292.684, 2321.810 2139 C 2321.428 2132.222, 2330.010 2132.515, 2255.500 2136.738 M 1491.105 2613.583 C 1462.647 2621.235, 1450.334 2654.277, 1466.945 2678.420 C 1484.606 2704.089, 1525.965 2700.830, 1539.013 2672.741 C 1554.225 2639.994, 1525.373 2604.367, 1491.105 2613.583 M 1489.487 2615.741 C 1455.118 2628.023, 1451.014 2672.871, 1482.713 2689.766 C 1518.530 2708.856, 1556.664 2668.111, 1535.713 2633.137 C 1526.622 2617.961, 1505.508 2610.015, 1489.487 2615.741 M 1506.223 2643.557 C 1505 2644.413, 1504 2646.158, 1504 2647.434 C 1504 2650.671, 1501.495 2652.656, 1499.500 2651 C 1498.675 2650.315, 1498 2648.740, 1498 2647.500 C 1498 2644.436, 1495.587 2642.636, 1492.513 2643.407 C 1488.419 2644.435, 1488.973 2649.544, 1493.378 2651.385 C 1498.204 2653.401, 1499.347 2659.222, 1494.556 2657.383 C 1492.902 2656.748, 1490 2659.608, 1490 2661.871 C 1490 2666.893, 1496.448 2667.562, 1498.463 2662.750 C 1499.211 2660.963, 1500.164 2659.162, 1500.581 2658.748 C 1501.527 2657.807, 1505 2660.849, 1505 2662.620 C 1505 2664.774, 1508.689 2666.237, 1511 2665 C 1514.876 2662.926, 1512.920 2657, 1508.359 2657 C 1507.126 2657, 1505.822 2656.522, 1505.461 2655.937 C 1504.663 2654.645, 1507.775 2651, 1509.676 2651 C 1512.251 2651, 1513.598 2646.159, 1511.566 2644.213 C 1509.860 2642.580, 1509.839 2642.604, 1511.113 2644.725 C 1512.168 2646.481, 1512.192 2647.208, 1511.225 2648.175 C 1510.258 2649.142, 1510 2649.041, 1510 2647.700 C 1510 2645.729, 1507.941 2645.459, 1506.200 2647.200 C 1505.267 2648.133, 1505 2648.049, 1505 2646.822 C 1505 2645.954, 1506.013 2644.538, 1507.250 2643.674 C 1508.487 2642.811, 1509.263 2642.081, 1508.973 2642.052 C 1508.682 2642.024, 1507.445 2642.701, 1506.223 2643.557 M 1488.487 3291.743 C 1457.937 3302.648, 1449.400 3340.064, 1472.481 3361.894 C 1506.475 3394.043, 1558.779 3355.809, 1539.013 3313.259 C 1530.624 3295.201, 1506.992 3285.138, 1488.487 3291.743 M 1493.363 3292.038 C 1468.814 3296.898, 1454.085 3325.779, 1464.700 3348.241 C 1481.148 3383.041, 1531.031 3378.266, 1540.584 3340.977 C 1547.689 3313.244, 1521.796 3286.409, 1493.363 3292.038 M 1491.596 3321.306 C 1489.065 3323.157, 1489.894 3327.192, 1493.122 3328.734 C 1498.461 3331.285, 1499.316 3335, 1494.563 3335 C 1491.414 3335, 1489.630 3337.389, 1490.422 3340.544 C 1490.938 3342.600, 1491.485 3342.981, 1493.159 3342.450 C 1494.550 3342.008, 1495.024 3342.153, 1494.573 3342.881 C 1494.153 3343.561, 1494.468 3343.758, 1495.402 3343.399 C 1496.230 3343.081, 1497.809 3341.293, 1498.911 3339.426 C 1501.171 3335.596, 1503.630 3335.680, 1504.619 3339.619 C 1505.334 3342.468, 1509.324 3343.806, 1511.564 3341.947 C 1513.364 3340.453, 1513.097 3335.850, 1511.174 3335.218 C 1510.098 3334.865, 1510.081 3335.156, 1511.081 3336.759 C 1512.749 3339.428, 1511.583 3342.026, 1508.781 3341.884 C 1507.088 3341.798, 1506.951 3341.650, 1508.250 3341.311 C 1510.188 3340.804, 1510.598 3338.487, 1508.932 3337.458 C 1508.344 3337.095, 1508.084 3336.224, 1508.353 3335.523 C 1508.635 3334.788, 1508.150 3334.302, 1507.209 3334.374 C 1503.800 3334.637, 1504.840 3331.126, 1508.937 3328.540 C 1513.245 3325.820, 1513.614 3325.016, 1511.965 3321.934 C 1509.684 3317.672, 1504 3320.549, 1504 3325.966 C 1504 3327.119, 1503.319 3328.324, 1502.487 3328.643 C 1500.378 3329.453, 1498 3327.211, 1498 3324.413 C 1498 3323.120, 1497.133 3321.606, 1496.066 3321.035 C 1493.649 3319.742, 1493.743 3319.736, 1491.596 3321.306" stroke="none" fill="#141414" fill-rule="evenodd"/>
</svg>